HIERARCHY
ROOT Hips
{
    OFFSET 0.000000 0.000000 0.000000
    CHANNELS 6 Xposition Yposition Zposition Zrotation Xrotation Yrotation
    JOINT Spine
    {
        OFFSET -0.000000 14.517291 0.000000
        CHANNELS 3 Zrotation Xrotation Yrotation
        JOINT Spine1
        {
            OFFSET -0.000000 37.558300 0.000000
            CHANNELS 3 Zrotation Xrotation Yrotation
            JOINT Neck
            {
                OFFSET -0.000000 37.404057 3.400369
                CHANNELS 3 Zrotation Xrotation Yrotation
                JOINT Head
                {
                    OFFSET -0.000000 24.785618 -3.540803
                    CHANNELS 3 Zrotation Xrotation Yrotation
                    End Site
                    {
                        OFFSET -0.000000 35.408028 0.000000
                    }
                }
            }
            JOINT LeftShoulder
            {
                OFFSET 6.992933 33.973492 -0.192664
                CHANNELS 3 Zrotation Xrotation Yrotation
                JOINT LeftArm
                {
                    OFFSET 21.527611 0.000000 0.000000
                    CHANNELS 3 Zrotation Xrotation Yrotation
                    JOINT LeftForeArm
                    {
                        OFFSET 56.353916 0.000000 0.000000
                        CHANNELS 3 Zrotation Xrotation Yrotation
                        JOINT LeftHand
                        {
                            OFFSET 47.774071 0.000000 0.000000
                            CHANNELS 3 Zrotation Xrotation Yrotation
                            End Site
                            {
                                OFFSET 26.556021 0.000000 0.000000
                            }
                        }
                    }
                }
            }
            JOINT RightShoulder
            {
                OFFSET -7.065357 33.973492 -0.192664
                CHANNELS 3 Zrotation Xrotation Yrotation
                JOINT RightArm
                {
                    OFFSET -21.527611 0.000000 0.000000
                    CHANNELS 3 Zrotation Xrotation Yrotation
                    JOINT RightForeArm
                    {
                        OFFSET -56.353916 0.000000 0.000000
                        CHANNELS 3 Zrotation Xrotation Yrotation
                        JOINT RightHand
                        {
                            OFFSET -47.774071 0.000000 0.000000
                            CHANNELS 3 Zrotation Xrotation Yrotation
                            End Site
                            {
                                OFFSET -26.556021 0.000000 0.000000
                            }
                        }
                    }
                }
            }
        }
    }
    JOINT LeftUpLeg
    {
        OFFSET 17.704014 0.000000 0.000000
        CHANNELS 3 Zrotation Xrotation Yrotation
        JOINT LeftLeg
        {
            OFFSET -0.000000 -81.181816 0.000000
            CHANNELS 3 Zrotation Xrotation Yrotation
            JOINT LeftFoot
            {
                OFFSET -0.000000 -62.821102 0.000000
                CHANNELS 3 Zrotation Xrotation Yrotation
                JOINT LeftToeBase
                {
                    OFFSET -0.000000 -11.507608 26.556021
                    CHANNELS 3 Zrotation Xrotation Yrotation
                    End Site
                    {
                        OFFSET -0.000000 0.000000 7.081605
                    }
                }
            }
        }
    }
    JOINT RightUpLeg
    {
        OFFSET -17.704014 0.000000 0.000000
        CHANNELS 3 Zrotation Xrotation Yrotation
        JOINT RightLeg
        {
            OFFSET -0.000000 -81.181816 0.000000
            CHANNELS 3 Zrotation Xrotation Yrotation
            JOINT RightFoot
            {
                OFFSET -0.000000 -62.821102 0.000000
                CHANNELS 3 Zrotation Xrotation Yrotation
                JOINT RightToeBase
                {
                    OFFSET -0.000000 -11.507608 26.556021
                    CHANNELS 3 Zrotation Xrotation Yrotation
                    End Site
                    {
                        OFFSET -0.000000 0.000000 7.081605
                    }
                }
            }
        }
    }
}
MOTION
Frames:    11
Frame Time:    0.008333
24.718315    155.338715    -36.305229    0.683273    -2.085029    -42.729980    1.589322    -1.212249    0.922891    -0.002029    1.975481    0.300686    15.961408    0.290974    15.347388    -10.319095    9.107780    13.007298    7.370542    3.674842    -18.357376    -22.572685    -4.335785    -56.382549    33.887306    -43.222839    -32.784355    -12.960077    -32.291660    -30.707273    -5.554327    4.492771    -0.057427    33.367111    9.279046    78.605812    4.900024    -3.807335    103.384750    10.075324    -7.874142    23.736490    16.811316    -19.193270    3.565772    -11.867186    19.324474    -4.342186    -8.433997    0.020980    37.555740    0.000000    0.000000    0.000000    -16.224783    2.135306    -7.842202    7.375815    30.435495    -2.213944    4.533727    -23.680449    -17.294958    0.000000    0.000000    0.000000    
24.691290    155.342819    -36.299339    0.686941    -2.063503    -42.793751    1.589783    -1.203322    0.931634    0.013660    1.928140    0.303401    15.935972    0.327912    15.347429    -10.300666    9.088190    13.015769    7.443520    3.535103    -18.323162    -22.096920    -4.693673    -55.751060    33.172466    -42.793514    -32.865372    -13.085839    -31.925215    -30.830767    -5.566392    4.497297    -0.039601    33.371986    9.256654    78.581085    4.921032    -3.729069    103.362991    10.022162    -7.830760    23.744570    16.842983    -19.183195    3.587254    -11.866542    19.333538    -4.339888    -8.441885    -0.018887    37.596142    0.000000    0.000000    0.000000    -16.208910    2.105193    -7.796744    7.370572    30.422201    -2.218877    4.538605    -23.670052    -17.278502    0.000000    0.000000    0.000000    
24.660063    155.349960    -36.295601    0.697644    -2.046643    -42.856209    1.562870    -1.204243    0.938062    0.063306    1.897563    0.304757    15.901960    0.332198    15.360108    -10.287687    9.101525    13.036736    7.510616    3.364555    -18.284445    -21.749228    -5.131362    -55.141056    32.271027    -42.300682    -33.075542    -13.118917    -31.521854    -30.995173    -5.601734    4.482143    -0.017765    33.372250    9.258815    78.553787    4.935178    -3.698667    103.365631    10.034069    -7.815358    23.751736    16.866802    -19.165779    3.602001    -11.868036    19.320942    -4.325366    -8.440475    -0.030588    37.628277    0.000000    0.000000    0.000000    -16.198801    2.074800    -7.758292    7.362949    30.415073    -2.214017    4.524366    -23.661575    -17.268370    0.000000    0.000000    0.000000    
24.626707    155.355042    -36.284573    0.700648    -2.032809    -42.914627    1.546728    -1.210292    0.950663    0.099485    1.880706    0.308418    15.868738    0.338306    15.367491    -10.260319    9.110427    13.052780    7.582557    3.183865    -18.263378    -21.330029    -5.474953    -54.540855    31.451937    -41.942924    -33.212639    -13.111756    -31.294226    -31.067783    -5.626627    4.484696    -0.014300    33.382786    9.241515    78.540764    4.958453    -3.643280    103.358772    9.995462    -7.798145    23.739628    16.890619    -19.145554    3.637886    -11.856509    19.326580    -4.324220    -8.444615    -0.063706    37.644264    0.000000    0.000000    0.000000    -16.189201    2.061893    -7.733909    7.352791    30.394533    -2.199218    4.532633    -23.652256    -17.253536    0.000000    0.000000    0.000000    
24.591063    155.364624    -36.278545    0.705775    -2.021672    -42.970390    1.524262    -1.208068    0.955295    0.134974    1.846963    0.309597    15.834609    0.343889    15.366459    -10.234722    9.138391    13.061679    7.653126    3.027284    -18.229816    -20.797861    -5.691879    -53.956833    30.804964    -41.746773    -33.162636    -13.247250    -31.212250    -31.218187    -5.644553    4.493581    0.011921    33.382183    9.230884    78.519745    4.967972    -3.609604    103.348206    9.994147    -7.776922    23.727146    16.913551    -19.121759    3.662346    -11.852930    19.319826    -4.303461    -8.460386    -0.080932    37.650238    0.000000    0.000000    0.000000    -16.181021    2.052219    -7.728958    7.335235    30.371460    -2.175666    4.537157    -23.638649    -17.229130    0.000000    0.000000    0.000000    
24.554890    155.377274    -36.271893    0.716327    -2.001954    -43.021717    1.499713    -1.221201    0.965099    0.178577    1.823320    0.312209    15.816464    0.345771    15.370975    -10.235823    9.164905    13.071735    7.712152    2.863771    -18.196051    -20.424219    -6.053199    -53.436749    29.926449    -41.523132    -33.311546    -13.392100    -31.111074    -31.352114    -5.674212    4.498206    0.022000    33.392235    9.229559    78.499565    4.985733    -3.576746    103.337479    9.993032    -7.765591    23.731255    16.939199    -19.110125    3.698377    -11.847523    19.312384    -4.294853    -8.463880    -0.081971    37.658443    0.000000    0.000000    0.000000    -16.173170    2.040541    -7.712526    7.333640    30.334877    -2.145690    4.526669    -23.622849    -17.227846    0.000000    0.000000    0.000000    
24.515053    155.389481    -36.261620    0.718061    -1.989652    -43.070148    1.480814    -1.229709    0.985207    0.211033    1.807492    0.318375    15.773493    0.335695    15.364496    -10.187361    9.190507    13.075159    7.793961    2.715242    -18.174135    -20.023705    -6.357783    -52.944031    29.126253    -41.336208    -33.370705    -13.481965    -31.076414    -31.402161    -5.689525    4.504900    0.023431    33.392109    9.232332    78.477692    5.008641    -3.563164    103.337662    9.972052    -7.785737    23.727451    16.962605    -19.081844    3.716400    -11.842575    19.295406    -4.266943    -8.473294    -0.093003    37.653465    0.000000    0.000000    0.000000    -16.158415    2.042332    -7.718945    7.309811    30.296696    -2.148197    4.548084    -23.601109    -17.176847    0.000000    0.000000    0.000000    
24.470074    155.403534    -36.251305    0.713266    -1.975513    -43.110706    1.448214    -1.236285    1.034022    0.266741    1.831579    0.333752    15.748471    0.220665    15.354028    -10.154624    9.279365    13.061608    7.902978    2.525223    -18.138498    -19.668015    -6.628443    -52.543701    28.364878    -41.248840    -33.416996    -13.621849    -31.142422    -31.391014    -5.724156    4.469390    -0.087635    33.391735    9.265866    78.509193    5.019983    -3.561085    103.345360    9.967747    -7.801115    23.712093    16.992165    -19.053648    3.747444    -11.836731    19.283834    -4.270548    -8.476339    -0.104001    37.668159    0.000000    0.000000    0.000000    -16.137669    2.062236    -7.729755    7.291035    30.238144    -2.124461    4.554323    -23.574558    -17.149519    0.000000    0.000000    0.000000    
24.422947    155.420563    -36.241394    0.703865    -1.961644    -43.144989    1.439411    -1.226525    1.046725    0.289242    1.781789    0.337853    15.753246    0.219350    15.351516    -10.155966    9.333225    13.062886    7.977334    2.417467    -18.129356    -19.452324    -7.081083    -52.145786    27.427183    -41.037212    -33.568810    -13.797277    -31.064819    -31.539858    -5.719696    4.496439    -0.069749    33.379436    9.271493    78.475616    5.033125    -3.552734    103.338493    9.974033    -7.805157    23.735666    17.023535    -19.022051    3.742097    -11.840357    19.262703    -4.229985    -8.484322    -0.100622    37.660130    0.000000    0.000000    0.000000    -16.111572    2.084895    -7.738308    7.272903    30.186184    -2.092885    4.554650    -23.543970    -17.131905    0.000000    0.000000    0.000000    
24.377165    155.436722    -36.226032    0.691205    -1.952459    -43.168816    1.437057    -1.219082    1.054241    0.305829    1.747947    0.340172    15.721610    0.213008    15.343601    -10.115168    9.366782    13.063866    8.046975    2.293008    -18.109419    -19.116552    -7.335201    -51.767574    26.785763    -40.974293    -33.497078    -13.991809    -31.126312    -31.641525    -5.723728    4.500419    -0.065768    33.399471    9.286891    78.446632    5.052812    -3.511247    103.325684    9.965588    -7.790736    23.717237    17.047598    -18.987782    3.736251    -11.835761    19.244066    -4.227070    -8.495719    -0.116841    37.675014    0.000000    0.000000    0.000000    -16.087103    2.125753    -7.749734    7.262383    30.115128    -2.077224    4.560746    -23.507624    -17.111719    0.000000    0.000000    0.000000    
24.329884    155.457947    -36.215420    0.679374    -1.933874    -43.194344    1.431456    -1.224478    1.067818    0.336142    1.721788    0.344381    15.704256    0.212933    15.334846    -10.102778    9.391113    13.060209    8.123641    2.178004    -18.095486    -18.835466    -7.625639    -51.411343    26.153692    -40.867432    -33.486549    -14.110680    -31.170773    -31.467945    -5.725565    4.516174    -0.066062    33.405262    9.282080    78.432472    5.067126    -3.476138    103.303642    9.970173    -7.769825    23.723085    17.078255    -18.960682    3.738188    -11.825650    19.225451    -4.218422    -8.519770    -0.123095    37.683121    0.000000    0.000000    0.000000    -16.047567    2.159380    -7.770932    7.226826    30.028515    -2.243876    4.660742    -23.444349    -16.886219    0.000000    0.000000    0.000000    
